<?xml version="1.0" encoding="UTF-8"?>
<svg id="Layer_1" data-name="Layer 1" xmlns="http://www.w3.org/2000/svg" viewBox="0 0 146.89 159.1">
  <defs>
    <style>
      .cls-1 {
        fill: #4d361c;
      }

      .cls-2 {
        fill: #fff;
      }

      .cls-3 {
        fill: #6fc067;
      }
    </style>
  </defs>
  <path class="cls-3" d="M94.87,103.41c-1.32-1.02-5.7-3.45-7.3-4.17L139.54,15.5c4.53-3.29,9.77.96,6.13,5.78l-50.8,82.13Z"/>
  <g>
    <path class="cls-2" d="M8.33,158.66c-.76-2.81,4-10.75,2.44-12.69-1.08-1.34-4.52,1.59-5.21.88-1.11-1.13,2.96-11.96,3.76-13.79,5.51-12.52,10.82-19.41,13.52-33.75.53-2.83,2.1-11.12,2.06-13.52-.05-4.01-4.21-.23-4.36-4.41-.28-7.71,4.23-13.5,6.23-19.83,1.77-5.62-3.89-1.8-4.34-1.93-1.83-.52,1.72-7.8,2.41-9.04,2.89-5.23,5.57-6.73,9.23-10.58,2.1-2.21-.33-3.94-.67-6.65-.96-7.68,2.44-19.67,8.88-24.4.6-.44,4.03-2.99,4.29-1.29,1.28,8.46-5.34,18.2-6.17,25.82-.26,2.35.26,4.99,3.17,3.51,1.62-.82,1.47-2.92,2.22-3.43,5.55-3.79,26.74,1.18,29.45,7.65,1.21,2.89-.28,4.03-.09,6,.23,2.5,5.19,4.64,7.04,6.17,2.77,2.29,11.64,11.18,11.93,14.51.38,4.41-5.02-2.3-5.82-2.54-3.21-.98-3.99,2.37-2.11,4.54,2.79,3.22,9.27,1.67,4.7,7.13-2.54,3.04-5.44,3.76-8.85,1.53-1.02-.67-4.1-4.78-5.41-2.24s2.97,5.73,2.95,6.08c-.12,2.35-19.48-1.8-20.34-.54-2.06,2.98,4.98,4.87,6.08,5.78,1.66,1.37,3.53,16.22,4.78,19.2.38,2.22,1.7,9.26,1.09,10.96-.76,2.13-14.87,6.12-17.54,6.44-1.8.22-8.74-.94-6.04,2.66,2.86,3.81,16.14.53,20.15-1.06,2.54-1.01,8.35-4.94,10.27-4.7,3.41.43,2.55,6.51,1.81,8.79-3.05,9.3-15.28,14.61-24.15,16.17-1.72.3-7.87-.47-4.61,3.4,3.02,3.58,13.38.09,17.13-1.31,1.57-.58,8.95-4.56,9.46-4.44.74.18,2.83,13.31,1.92,14.94-23.22.4-48.44-1.48-71.24,0ZM69.08,55.17c-.35-.66-6.59-2.67-7.66-2.45-3.83.79-2.25,9.49,4.01,8.21,1.77-.36,4.52-4.13,3.65-5.76Z"/>
    <path class="cls-1" d="M8.33,158.66c-1.6.1-3.47.65-5.21.35v-5.04c0-.14.45-.49.32-.98-.05-.18-1.94-1.63-2.47-2.78-4.26-9.24,6.68-24.94,10.44-33.48,3.26-7.39,6.16-16.92,6.6-25.02.26-4.76-1.02-2.75-2.1-5.44s-.63-7.41-.19-10.4c.28-1.92,3-10.24,2.92-10.87-.05-.39-1.48-1.37-1.88-2.51-2.36-6.88,4.69-17.96,9.12-23.03.6-.69,2.41-1.82,2.56-2.33.29-.98-.6-3.17-.65-4.43-.49-11.33,2.22-21.7,11.48-28.86,14.74-11.41,14.32,5.27,11.79,15.62-.27,1.09-2.7,7.23-2.41,7.49.08.07,1.92.07,2.25,0,1.86-.44,11.63-14.16,13.91-16.68,2.56-2.82,7.3-8.79,11.14-4.88s1.22,15.44-1.17,20.06c-.55,1.07-3.8,5.21-3.52,5.66.14.22,3.83,1.63,4.62,2.16,3.06,2.04,5.58,5.38,5.82,9.16.07,1.18-.77,2.56-.2,3.64.34.63,7.83,6.16,9.21,7.47,7.78,7.38,12.64,15.1,5.97,25.44-3.28,5.09-13.8,10.18-19.7,10.18h-5.04l5.22,24.67c.29.18,3.71-4.79,3.77-5.13.16-.95-1.51-1.74-1.28-3.64.09-.75,2.34-4.79,2.92-5.45,2.02-2.28,2.74-1.4,5.01-.38,1.6.72,5.98,3.15,7.3,4.17s2.25,1.8,2.07,3.61c-.12,1.24-3.44,6.76-4.67,6.81-.6.02-1.68-1.02-2.24-.66-.16.1-2,3.09-2,3.28,0,.27,2.13,2.86,2.51,3.64,2.52,5.13.97,10.13-2.13,14.58-.83,1.19-5.5,5.7-5.57,6.1-.14.9,1.66,6.8,1.9,8.4.21,1.37,1.28,9.2.16,9.53-.89.25-4.05-.03-5.32-.01.91-1.63-1.18-14.76-1.92-14.94-.51-.13-7.89,3.85-9.46,4.44-3.75,1.4-14.11,4.88-17.13,1.31-3.26-3.87,2.89-3.1,4.61-3.4,8.87-1.56,21.1-6.86,24.15-16.17.75-2.28,1.6-8.37-1.81-8.79-1.92-.24-7.74,3.7-10.27,4.7-4.01,1.59-17.29,4.87-20.15,1.06-2.7-3.6,4.24-2.44,6.04-2.66,2.67-.32,16.78-4.3,17.54-6.44.61-1.7-.71-8.74-1.09-10.96-1.25-2.98-3.12-17.83-4.78-19.2-1.1-.91-8.14-2.8-6.08-5.78.87-1.25,20.22,2.9,20.34.54.02-.36-4.29-3.49-2.95-6.08s4.39,1.57,5.41,2.24c3.4,2.23,6.3,1.51,8.85-1.53,4.57-5.46-1.91-3.91-4.7-7.13-1.88-2.17-1.1-5.52,2.11-4.54.8.25,6.21,6.96,5.82,2.54-.29-3.33-9.16-12.22-11.93-14.51-1.85-1.53-6.81-3.67-7.04-6.17-.18-1.97,1.31-3.12.09-6-2.72-6.47-23.9-11.44-29.45-7.65-.75.51-.59,2.61-2.22,3.43-2.9,1.47-3.42-1.17-3.17-3.51.83-7.62,7.44-17.36,6.17-25.82-.26-1.7-3.68.84-4.29,1.29-6.44,4.73-9.84,16.72-8.88,24.4.34,2.72,2.77,4.44.67,6.65-3.66,3.85-6.33,5.35-9.23,10.58-.68,1.24-4.24,8.52-2.41,9.04.45.13,6.11-3.68,4.34,1.93-2,6.33-6.51,12.12-6.23,19.83.15,4.18,4.31.41,4.36,4.41.03,2.4-1.53,10.69-2.06,13.52-2.7,14.34-8.01,21.22-13.52,33.75-.81,1.83-4.87,12.66-3.76,13.79.7.71,4.14-2.22,5.21-.88,1.57,1.95-3.19,9.89-2.44,12.69ZM72.28,11.31l-1.2.36-12.35,15.97c4.53.57,5.46,2.26,8.68-1.57,1.33-1.58,4.87-7.9,4.87-9.72v-5.04Z"/>
    <path class="cls-1" d="M69.08,55.17c.87,1.63-1.89,5.4-3.65,5.76-6.26,1.28-7.84-7.42-4.01-8.21,1.07-.22,7.31,1.79,7.66,2.45Z"/>
    <path class="cls-2" d="M72.28,11.31v5.04c0,1.82-3.55,8.14-4.87,9.72-3.22,3.83-4.15,2.14-8.68,1.57l12.35-15.97,1.2-.36Z"/>
  </g>
</svg>