<?xml version="1.0" encoding="UTF-8"?>
<svg id="Layer_1" data-name="Layer 1" xmlns="http://www.w3.org/2000/svg" viewBox="0 0 147.78 159.12">
  <defs>
    <style>
      .cls-1 {
        fill: #4d361c;
      }

      .cls-2 {
        fill: #fff;
      }

      .cls-3 {
        fill: #ed1368;
      }
    </style>
  </defs>
  <g id="lLKput">
    <g>
      <path class="cls-3" d="M60.43,98.87c-1.42.65-6.38,3.57-7.65,4.52-6.52-11.78-26.06-41.45-32.98-53.04-.43-1.92,4.81-3.42,5.49-5.31l35.13,53.84Z"/>
      <path class="cls-3" d="M3,14.84c1.66-.29,3.47.19,4.61,1.48l18.97,30.61c.18.75-4.08,7.09-4.55,7.09-2.85-4.51-6.09-8.77-9.01-13.23C10.74,37.32,1.02,23,.23,20.23c-.67-2.36.11-4.93,2.77-5.39Z"/>
      <g>
        <path class="cls-2" d="M67.38,158.64c.1-1.83,1.19-14.75,1.74-15.29.4-.39,8.7,4.29,9.99,4.78,6.16,2.37,16.03,4.21,22.4,2.41,1.42-.4,4.64-1.94,4.79-3.57.24-2.61-3.24-.9-5.02-.82-9.81.4-17.58-.98-25.66-6.68-4.96-3.5-10.23-9.42-9.19-16.01.46-2.89,1.1-3.04,3.63-2.07,7.12,2.74,9.83,6.94,19.06,6.33,3.37-.22,11.87-3.86,10.6-8.12-.38-1.29-6.01,1.4-7.31,1.68-4.57.96-8.69.57-12.96-1.29-.54-.24-3.65-2.01-3.73-2.26-.51-1.71,1.38-11.94,1.84-14.42.96-5.17,2.32-10.24,3.73-15.3,1.48-.91,9.36-3.5,6.76-6.17-1.3-1.33-9.15.88-11.45,1.05-1.16.08-8.85.09-9.22-.36-.25-.3,5.48-4.51,3.39-6.51-2.27-2.18-5.23,2.47-7.08,3.35-2.8,1.33-4.96.21-6.91-2.04-4.65-5.38,1.42-3.85,4.34-7.13,2.1-2.36,1.54-5.58-1.84-4.96-.94.17-5.27,6.16-5.82,3.22-.53-2.84,6.98-11.44,9.22-13.37,1.61-1.38,8.18-5.22,8.82-6.47,1.54-3.04-2.64-6.02,2.72-10.15,5.03-3.87,21.25-8.66,26.78-5.01,1.35.89,1,3.18,2.18,3.73,2.05.96,3.52-.66,3.41-2.68-.35-6.51-6.04-15.59-6.53-24.09-.15-2.64-.84-4.45,2.04-3.08,7.82,3.71,11.97,16.18,11.5,24.28-.13,2.21-1.72,6.16-1.29,7.91.4,1.61,2.55,2.08,3.75,3.21,2.78,2.61,7.19,9.71,8.16,13.39,1.52,5.76-.74,2.13-2.7,2.5-3.34.62,1.12,6.54,1.88,8.4.92,2.25,5.06,15.24,3.01,16.51-1.28.8-4.04-.96-3.74,2.96.5,6.42,3.62,18.95,5.72,25.22,2.8,8.39,7.41,15.87,10.83,23.93.78,1.85,4.02,10.06,3.19,11.5-.5.87-4.32-1.18-4.82,1.28-.46,2.24,2.19,7.51,1.39,10.23-22.99-.74-48.6-.73-71.59,0ZM84.69,52.73c-.99.05-4.8,1.19-5.58,1.74-2.99,2.09,1.48,6.57,3.82,6.79,5.12.49,6.91-8.78,1.76-8.53Z"/>
        <path class="cls-1" d="M60.43,98.87c1.79-.81,3.06-1.11,4.47.57.48.58,2.59,4.63,2.68,5.31.24,1.93-1.46,2.67-1.17,3.92.24,1.06,2.98,4.06,3.76,5.13.87-8.17,2.44-16.3,4.85-24.16-.13-.83-3.39-.44-4.28-.57-8.69-1.19-17.7-4.35-21.48-12.92-4.91-11.12,2.12-18.12,9.98-24.9,1.01-.87,6.55-4.55,6.73-4.93.1-.19-.7-3.28-.64-4.24.23-3.99,3.74-7.44,6.96-9.41.96-.59,4.35-1.74,4.49-1.94.28-.4-4.6-6.55-5.27-8.1-1.92-4.41-4.74-21.23,3.98-18.23,5.67,1.95,14.89,17.6,19.54,22.16.38.51,2.84.45,2.95.35.37-.35-2.61-8.34-2.9-9.78-1.72-8.48-2.26-22.76,10.3-14.82,8.01,5.06,13.08,14.75,13.79,24.09.19,2.53-.96,9.48-.62,10.69.2.69,2.72,2.71,3.4,3.57,3.85,4.85,9.46,13.69,8.67,20.11-.21,1.74-1.77,3.31-1.73,4.54.06,1.79,2.19,7.06,2.64,9.57.56,3.1,1.26,7.78.36,10.79-.77,2.55-2.43,1.42-2.22,5.33.47,8.7,4.02,19.61,7.54,27.56,3.66,8.28,13.45,22.6,9.82,31.59-.57,1.41-2.63,2.37-2.78,2.63-.18.32.32.68.32.81v5.39c-1.8.33-3.93-.29-5.56-.35.8-2.72-1.84-8-1.39-10.23.5-2.45,4.32-.4,4.82-1.28.83-1.44-2.41-9.65-3.19-11.5-3.42-8.06-8.03-15.54-10.83-23.93-2.09-6.27-5.22-18.81-5.72-25.22-.3-3.92,2.45-2.16,3.74-2.96,2.04-1.27-2.1-14.26-3.01-16.51-.76-1.85-5.22-7.78-1.88-8.4,1.96-.36,4.21,3.26,2.7-2.5-.97-3.68-5.39-10.78-8.16-13.39-1.2-1.12-3.35-1.6-3.75-3.21-.43-1.75,1.16-5.7,1.29-7.91.47-8.1-3.68-20.57-11.5-24.28-2.88-1.37-2.19.44-2.04,3.08.49,8.5,6.18,17.58,6.53,24.09.11,2.02-1.36,3.64-3.41,2.68-1.17-.55-.83-2.85-2.18-3.73-5.53-3.64-21.75,1.14-26.78,5.01-5.35,4.12-1.18,7.11-2.72,10.15-.64,1.26-7.21,5.09-8.82,6.47-2.25,1.93-9.75,10.53-9.22,13.37.55,2.94,4.87-3.04,5.82-3.22,3.37-.62,3.94,2.6,1.84,4.96-2.92,3.28-9,1.76-4.34,7.13,1.95,2.25,4.11,3.37,6.91,2.04,1.85-.88,4.81-5.52,7.08-3.35,2.09,2.01-3.64,6.21-3.39,6.51.37.45,8.06.45,9.22.36,2.3-.16,10.15-2.38,11.45-1.05,2.59,2.66-5.29,5.26-6.76,6.17-1.4,5.06-2.76,10.13-3.73,15.3-.46,2.48-2.36,12.7-1.84,14.42.08.25,3.19,2.02,3.73,2.26,4.27,1.86,8.39,2.25,12.96,1.29,1.3-.27,6.93-2.97,7.31-1.68,1.26,4.25-7.24,7.89-10.6,8.12-9.22.61-11.94-3.59-19.06-6.33-2.54-.98-3.18-.82-3.63,2.07-1.04,6.59,4.23,12.51,9.19,16.01,8.08,5.7,15.85,7.09,25.66,6.68,1.78-.07,5.26-1.79,5.02.82-.15,1.63-3.37,3.17-4.79,3.57-6.37,1.8-16.24-.04-22.4-2.41-1.28-.49-9.59-5.17-9.99-4.78-.55.54-1.64,13.46-1.74,15.29-.83.03-5.15.77-5.56.35-.27-.28.78-6.72.36-7.81.16-1.87,1.91-10.33,1.75-11.06-.08-.35-4.07-3.72-5.03-5.14-2.88-4.28-4.08-9.17-2.01-14.1.36-.85,2.82-4.1,2.79-4.39-.02-.2-2.2-3.14-2.38-3.22-.84-.4-1.52,1.25-3.1,0-.26-.2-3.46-5.12-3.58-5.46-.75-2.21.57-3.23,2.16-4.42,1.26-.95,6.23-3.87,7.65-4.52ZM87.88,27.62l-12.85-15.98c-1.08,3.67,4.47,16.74,8.18,17.01.29.02,4.51-.85,4.67-1.03Z"/>
        <path class="cls-1" d="M84.69,52.73c5.15-.25,3.36,9.02-1.76,8.53-2.35-.22-6.82-4.7-3.82-6.79.78-.55,4.59-1.69,5.58-1.74Z"/>
        <path class="cls-2" d="M87.88,27.62c-.16.18-4.38,1.05-4.67,1.03-3.71-.28-9.26-13.34-8.18-17.01l12.85,15.98Z"/>
      </g>
    </g>
  </g>
</svg>