<?xml version="1.0" encoding="UTF-8"?>
<svg id="Layer_1" data-name="Layer 1" xmlns="http://www.w3.org/2000/svg" viewBox="0 0 237.13 159.14">
  <defs>
    <style>
      .cls-1 {
        fill: #4d361c;
      }

      .cls-2 {
        fill: #fff;
      }

      .cls-3 {
        fill: #9ccb3b;
      }

      .cls-4 {
        fill: #ed1368;
      }
    </style>
  </defs>
  <g id="lLKput">
    <g>
      <path class="cls-4" d="M149.78,98.89c-1.42.65-6.38,3.57-7.65,4.52-6.52-11.78-14.49-22.82-21.4-34.41-.43-1.92,3.35-5.75,4.03-7.64l25.01,37.53Z"/>
      <g>
        <path class="cls-3" d="M94.87,103.41c-1.32-1.02-5.7-3.45-7.3-4.17L139.54,15.5c4.53-3.29,9.77.96,6.13,5.78l-50.8,82.13Z"/>
        <path class="cls-4" d="M92.35,14.86c1.66-.29,3.47.19,4.61,1.48l18.93,30.06c.18.75-4.03,7.64-4.51,7.64-2.85-4.51-6.09-8.77-9.01-13.23-2.28-3.48-12-17.8-12.79-20.57-.67-2.36.11-4.93,2.77-5.39Z"/>
      </g>
      <g>
        <path class="cls-2" d="M156.73,158.66c.1-1.83,1.19-14.75,1.74-15.29.4-.39,8.7,4.29,9.99,4.78,6.16,2.37,16.03,4.21,22.4,2.41,1.42-.4,4.64-1.94,4.79-3.57.24-2.61-3.24-.9-5.02-.82-9.81.4-17.58-.98-25.66-6.68-4.96-3.5-10.23-9.42-9.19-16.01.46-2.89,1.1-3.04,3.63-2.07,7.12,2.74,9.83,6.94,19.06,6.33,3.37-.22,11.87-3.86,10.6-8.12-.38-1.29-6.01,1.4-7.31,1.68-4.57.96-8.69.57-12.96-1.29-.54-.24-3.65-2.01-3.73-2.26-.51-1.71,1.38-11.94,1.84-14.42.96-5.17,2.32-10.24,3.73-15.3,1.48-.91,9.36-3.5,6.76-6.17-1.3-1.33-9.15.88-11.45,1.05-1.16.08-8.85.09-9.22-.36-.25-.3,5.48-4.51,3.39-6.51-2.27-2.18-5.23,2.47-7.08,3.35-2.8,1.33-4.96.21-6.91-2.04-4.65-5.38,1.42-3.85,4.34-7.13,2.1-2.36,1.54-5.58-1.84-4.96-.94.17-5.27,6.16-5.82,3.22-.53-2.84,6.98-11.44,9.22-13.37,1.61-1.38,8.18-5.22,8.82-6.47,1.54-3.04-2.64-6.02,2.72-10.15,5.03-3.87,21.25-8.66,26.78-5.01,1.35.89,1,3.18,2.18,3.73,2.05.96,3.52-.66,3.41-2.68-.35-6.51-6.04-15.59-6.53-24.09-.15-2.64-.84-4.45,2.04-3.08,7.82,3.71,11.97,16.18,11.5,24.28-.13,2.21-1.72,6.16-1.29,7.91.4,1.61,2.55,2.08,3.75,3.21,2.78,2.61,7.19,9.71,8.16,13.39,1.52,5.76-.74,2.13-2.7,2.5-3.34.62,1.12,6.54,1.88,8.4.92,2.25,5.06,15.24,3.01,16.51-1.28.8-4.04-.96-3.74,2.96.5,6.42,3.62,18.95,5.72,25.22,2.8,8.39,7.41,15.87,10.83,23.93.78,1.85,4.02,10.06,3.19,11.5-.5.87-4.32-1.18-4.82,1.28-.46,2.24,2.19,7.51,1.39,10.23-22.99-.74-48.6-.73-71.59,0ZM174.04,52.75c-.99.05-4.8,1.19-5.58,1.74-2.99,2.09,1.48,6.57,3.82,6.79,5.12.49,6.91-8.78,1.76-8.53Z"/>
        <path class="cls-1" d="M149.78,98.89c1.79-.81,3.06-1.11,4.47.57.48.58,2.59,4.63,2.68,5.31.24,1.93-1.46,2.67-1.17,3.92.24,1.06,2.98,4.06,3.76,5.13.87-8.17,2.44-16.3,4.85-24.16-.13-.83-3.39-.44-4.28-.57-8.69-1.19-17.7-4.35-21.48-12.92-4.91-11.12,2.12-18.12,9.98-24.9,1.01-.87,6.55-4.55,6.73-4.93.1-.19-.7-3.28-.64-4.24.23-3.99,3.74-7.44,6.96-9.41.96-.59,4.35-1.74,4.49-1.94.28-.4-4.6-6.55-5.27-8.1-1.92-4.41-4.74-21.23,3.98-18.23,5.67,1.95,14.89,17.6,19.54,22.16.38.51,2.84.45,2.95.35.37-.35-2.61-8.34-2.9-9.78-1.72-8.48-2.26-22.76,10.3-14.82,8.01,5.06,13.08,14.75,13.79,24.09.19,2.53-.96,9.48-.62,10.69.2.69,2.72,2.71,3.4,3.57,3.85,4.85,9.46,13.69,8.67,20.11-.21,1.74-1.77,3.31-1.73,4.54.06,1.79,2.19,7.06,2.64,9.57.56,3.1,1.26,7.78.36,10.79-.77,2.55-2.43,1.42-2.22,5.33.47,8.7,4.02,19.61,7.54,27.56,3.66,8.28,13.45,22.6,9.82,31.59-.57,1.41-2.63,2.37-2.78,2.63-.18.32.32.68.32.81v5.39c-1.8.33-3.93-.29-5.56-.35.8-2.72-1.84-8-1.39-10.23.5-2.45,4.32-.4,4.82-1.28.83-1.44-2.41-9.65-3.19-11.5-3.42-8.06-8.03-15.54-10.83-23.93-2.09-6.27-5.22-18.81-5.72-25.22-.3-3.92,2.45-2.16,3.74-2.96,2.04-1.27-2.1-14.26-3.01-16.51-.76-1.85-5.22-7.78-1.88-8.4,1.96-.36,4.21,3.26,2.7-2.5-.97-3.68-5.39-10.78-8.16-13.39-1.2-1.12-3.35-1.6-3.75-3.21-.43-1.75,1.16-5.7,1.29-7.91.47-8.1-3.68-20.57-11.5-24.28-2.88-1.37-2.19.44-2.04,3.08.49,8.5,6.18,17.58,6.53,24.09.11,2.02-1.36,3.64-3.41,2.68-1.17-.55-.83-2.85-2.18-3.73-5.53-3.64-21.75,1.14-26.78,5.01-5.35,4.12-1.18,7.11-2.72,10.15-.64,1.26-7.21,5.09-8.82,6.47-2.25,1.93-9.75,10.53-9.22,13.37.55,2.94,4.87-3.04,5.82-3.22,3.37-.62,3.94,2.6,1.84,4.96-2.92,3.28-9,1.76-4.34,7.13,1.95,2.25,4.11,3.37,6.91,2.04,1.85-.88,4.81-5.52,7.08-3.35,2.09,2.01-3.64,6.21-3.39,6.51.37.45,8.06.45,9.22.36,2.3-.16,10.15-2.38,11.45-1.05,2.59,2.66-5.29,5.26-6.76,6.17-1.4,5.06-2.76,10.13-3.73,15.3-.46,2.48-2.36,12.7-1.84,14.42.08.25,3.19,2.02,3.73,2.26,4.27,1.86,8.39,2.25,12.96,1.29,1.3-.27,6.93-2.97,7.31-1.68,1.26,4.25-7.24,7.89-10.6,8.12-9.22.61-11.94-3.59-19.06-6.33-2.54-.98-3.18-.82-3.63,2.07-1.04,6.59,4.23,12.51,9.19,16.01,8.08,5.7,15.85,7.09,25.66,6.68,1.78-.07,5.26-1.79,5.02.82-.15,1.63-3.37,3.17-4.79,3.57-6.37,1.8-16.24-.04-22.4-2.41-1.28-.49-9.59-5.17-9.99-4.78-.55.54-1.64,13.46-1.74,15.29-.83.03-5.15.77-5.56.35-.27-.28.78-6.72.36-7.81.16-1.87,1.91-10.33,1.75-11.06-.08-.35-4.07-3.72-5.03-5.14-2.88-4.28-4.08-9.17-2.01-14.1.36-.85,2.82-4.1,2.79-4.39-.02-.2-2.2-3.14-2.38-3.22-.84-.4-1.52,1.25-3.1,0-.26-.2-3.46-5.12-3.58-5.46-.75-2.21.57-3.23,2.16-4.42,1.26-.95,6.23-3.87,7.65-4.52ZM177.23,27.64l-12.85-15.98c-1.08,3.67,4.47,16.74,8.18,17.01.29.02,4.51-.85,4.67-1.03Z"/>
        <path class="cls-1" d="M174.04,52.75c5.15-.25,3.36,9.02-1.76,8.53-2.35-.22-6.82-4.7-3.82-6.79.78-.55,4.59-1.69,5.58-1.74Z"/>
        <path class="cls-2" d="M177.23,27.64c-.16.18-4.38,1.05-4.67,1.03-3.71-.28-9.26-13.34-8.18-17.01l12.85,15.98Z"/>
      </g>
      <g>
        <path class="cls-2" d="M8.33,158.66c-.76-2.81,4-10.75,2.44-12.69-1.08-1.34-4.52,1.59-5.21.88-1.11-1.13,2.96-11.96,3.76-13.79,5.51-12.52,10.82-19.41,13.52-33.75.53-2.83,2.1-11.12,2.06-13.52-.05-4.01-4.21-.23-4.36-4.41-.28-7.71,4.23-13.5,6.23-19.83,1.77-5.62-3.89-1.8-4.34-1.93-1.83-.52,1.72-7.8,2.41-9.04,2.89-5.23,5.57-6.73,9.23-10.58,2.1-2.21-.33-3.94-.67-6.65-.96-7.68,2.44-19.67,8.88-24.4.6-.44,4.03-2.99,4.29-1.29,1.28,8.46-5.34,18.2-6.17,25.82-.26,2.35.26,4.99,3.17,3.51,1.62-.82,1.47-2.92,2.22-3.43,5.55-3.79,26.74,1.18,29.45,7.65,1.21,2.89-.28,4.03-.09,6,.23,2.5,5.19,4.64,7.04,6.17,2.77,2.29,11.64,11.18,11.93,14.51.38,4.41-5.02-2.3-5.82-2.54-3.21-.98-3.99,2.37-2.11,4.54,2.79,3.22,9.27,1.67,4.7,7.13-2.54,3.04-5.44,3.76-8.85,1.53-1.02-.67-4.1-4.78-5.41-2.24s2.97,5.73,2.95,6.08c-.12,2.35-19.48-1.8-20.34-.54-2.06,2.98,4.98,4.87,6.08,5.78,1.66,1.37,3.53,16.22,4.78,19.2.38,2.22,1.7,9.26,1.09,10.96-.76,2.13-14.87,6.12-17.54,6.44-1.8.22-8.74-.94-6.04,2.66,2.86,3.81,16.14.53,20.15-1.06,2.54-1.01,8.35-4.94,10.27-4.7,3.41.43,2.55,6.51,1.81,8.79-3.05,9.3-15.28,14.61-24.15,16.17-1.72.3-7.87-.47-4.61,3.4,3.02,3.58,13.38.09,17.13-1.31,1.57-.58,8.95-4.56,9.46-4.44.74.18,2.83,13.31,1.92,14.94-23.22.4-48.44-1.48-71.24,0ZM69.08,55.17c-.35-.66-6.59-2.67-7.66-2.45-3.83.79-2.25,9.49,4.01,8.21,1.77-.36,4.52-4.13,3.65-5.76Z"/>
        <path class="cls-1" d="M8.33,158.66c-1.6.1-3.47.65-5.21.35v-5.04c0-.14.45-.49.32-.98-.05-.18-1.94-1.63-2.47-2.78-4.26-9.24,6.68-24.94,10.44-33.48,3.26-7.39,6.16-16.92,6.6-25.02.26-4.76-1.02-2.75-2.1-5.44s-.63-7.41-.19-10.4c.28-1.92,3-10.24,2.92-10.87-.05-.39-1.48-1.37-1.88-2.51-2.36-6.88,4.69-17.96,9.12-23.03.6-.69,2.41-1.82,2.56-2.33.29-.98-.6-3.17-.65-4.43-.49-11.33,2.22-21.7,11.48-28.86,14.74-11.41,14.32,5.27,11.79,15.62-.27,1.09-2.7,7.23-2.41,7.49.08.07,1.92.07,2.25,0,1.86-.44,11.63-14.16,13.91-16.68,2.56-2.82,7.3-8.79,11.14-4.88s1.22,15.44-1.17,20.06c-.55,1.07-3.8,5.21-3.52,5.66.14.22,3.83,1.63,4.62,2.16,3.06,2.04,5.58,5.38,5.82,9.16.07,1.18-.77,2.56-.2,3.64.34.63,7.83,6.16,9.21,7.47,7.78,7.38,12.64,15.1,5.97,25.44-3.28,5.09-13.8,10.18-19.7,10.18h-5.04l5.22,24.67c.29.18,3.71-4.79,3.77-5.13.16-.95-1.51-1.74-1.28-3.64.09-.75,2.34-4.79,2.92-5.45,2.02-2.28,2.74-1.4,5.01-.38,1.6.72,5.98,3.15,7.3,4.17s2.25,1.8,2.07,3.61c-.12,1.24-3.44,6.76-4.67,6.81-.6.02-1.68-1.02-2.24-.66-.16.1-2,3.09-2,3.28,0,.27,2.13,2.86,2.51,3.64,2.52,5.13.97,10.13-2.13,14.58-.83,1.19-5.5,5.7-5.57,6.1-.14.9,1.66,6.8,1.9,8.4.21,1.37,1.28,9.2.16,9.53-.89.25-4.05-.03-5.32-.01.91-1.63-1.18-14.76-1.92-14.94-.51-.13-7.89,3.85-9.46,4.44-3.75,1.4-14.11,4.88-17.13,1.31-3.26-3.87,2.89-3.1,4.61-3.4,8.87-1.56,21.1-6.86,24.15-16.17.75-2.28,1.6-8.37-1.81-8.79-1.92-.24-7.74,3.7-10.27,4.7-4.01,1.59-17.29,4.87-20.15,1.06-2.7-3.6,4.24-2.44,6.04-2.66,2.67-.32,16.78-4.3,17.54-6.44.61-1.7-.71-8.74-1.09-10.96-1.25-2.98-3.12-17.83-4.78-19.2-1.1-.91-8.14-2.8-6.08-5.78.87-1.25,20.22,2.9,20.34.54.02-.36-4.29-3.49-2.95-6.08s4.39,1.57,5.41,2.24c3.4,2.23,6.3,1.51,8.85-1.53,4.57-5.46-1.91-3.91-4.7-7.13-1.88-2.17-1.1-5.52,2.11-4.54.8.25,6.21,6.96,5.82,2.54-.29-3.33-9.16-12.22-11.93-14.51-1.85-1.53-6.81-3.67-7.04-6.17-.18-1.97,1.31-3.12.09-6-2.72-6.47-23.9-11.44-29.45-7.65-.75.51-.59,2.61-2.22,3.43-2.9,1.47-3.42-1.17-3.17-3.51.83-7.62,7.44-17.36,6.17-25.82-.26-1.7-3.68.84-4.29,1.29-6.44,4.73-9.84,16.72-8.88,24.4.34,2.72,2.77,4.44.67,6.65-3.66,3.85-6.33,5.35-9.23,10.58-.68,1.24-4.24,8.52-2.41,9.04.45.13,6.11-3.68,4.34,1.93-2,6.33-6.51,12.12-6.23,19.83.15,4.18,4.31.41,4.36,4.41.03,2.4-1.53,10.69-2.06,13.52-2.7,14.34-8.01,21.22-13.52,33.75-.81,1.83-4.87,12.66-3.76,13.79.7.71,4.14-2.22,5.21-.88,1.57,1.95-3.19,9.89-2.44,12.69ZM72.28,11.31l-1.2.36-12.35,15.97c4.53.57,5.46,2.26,8.68-1.57,1.33-1.58,4.87-7.9,4.87-9.72v-5.04Z"/>
        <path class="cls-1" d="M69.08,55.17c.87,1.63-1.89,5.4-3.65,5.76-6.26,1.28-7.84-7.42-4.01-8.21,1.07-.22,7.31,1.79,7.66,2.45Z"/>
        <path class="cls-2" d="M72.28,11.31v5.04c0,1.82-3.55,8.14-4.87,9.72-3.22,3.83-4.15,2.14-8.68,1.57l12.35-15.97,1.2-.36Z"/>
      </g>
    </g>
  </g>
</svg>